<?xml version="1.0" encoding="UTF-8"?>
<svg id="Layer_1" data-name="Layer 1" xmlns="http://www.w3.org/2000/svg" viewBox="0 0 142 40">
  <defs>
    <style>
      .cls-1 {
        fill: #042e30;
      }

      .cls-2 {
        fill: #66d210;
      }
    </style>
  </defs>
  <path class="cls-1" d="M1.28,9.51l-.97,2.86H7.13S2.01,27.48,0,33.4H3.36c1.55-4.77,6.34-18.75,7.11-21.02h6.85l.97-2.86H1.28Z"/>
  <path class="cls-1" d="M121.94,18.48h-4c-2.2,7-5.2,9.79-6.2,10.27,0,0,.97-.94,.9-3.43-.06-2.15-1.3-4.84-2.29-6.83h-4.04c-1.8,5.81-5.39,10.44-6.87,10.44-.28,0-.48-.09-.61-.28-.55-.78,.32-3.15,2.88-10.15h-3l-.57,1.71c-.56-1.25-1.91-2.05-3.2-2.05-3.42,0-6.05,3.84-6.61,7.47-1.1,1.34-3.01,2.74-4.51,3.09,1.49-1.32,2.72-4.56,2.72-6.62,0-2.4-1.08-3.8-2.92-3.92-2.27-.15-3.64,.97-4.03,1.34l.34-1.02h-2.99l-1.53,4.49c-1.4,4.11-3.82,5.95-6.04,5.95-1.14,0-1.82-.86-1.97-1.22,3.08-1.99,9.43-9.83,8.07-16.3-.31-1.47-1.16-2.42-2.31-2.71-.27-.07-.54-.1-.82-.1-1.37,0-2.79,.8-4.11,2.32-2.62,3.01-4.84,9.23-3.94,15.94-1.23,.84-3.63,2.07-6.23,2.07-3.4,0-3.83-1.85-3.83-1.85,0,0,2.96,.59,5.5-.98,1.08-.67,2.37-2.11,2.38-4.17,0-1.03-.39-2.01-1.07-2.7-.7-.7-1.66-1.07-2.8-1.07-2.98,0-5.57,1.95-6.61,4.97-.06,.16-.18,.56-.23,.75-.84-.24-1.88-.85-2.22-1.2,.34-1.4,.58-2.96,.59-4.17h-3.19c-.03,4.12-1.72,8.04-3.32,9.66-.51,.52-.99,.78-1.43,.78-.72,0-1.16-.52-1.16-1.34,0-1.9,1.45-6.15,2.47-9.09h-3.14c-.91,2.44-1.57,4.61-1.96,6.38-1.54,2.56-3.05,4.05-4.13,4.05-.28,0-.48-.09-.61-.28-.55-.78,.32-3.15,2.88-10.15h-3l-.57,1.71-.22-.4c-.45-.81-1.69-1.65-2.98-1.65-3.43,0-6.06,3.82-6.61,7.47-.65,.98-2.32,3.3-3.6,3.3-.58,0-.94-.41-.94-1.08,0-1.17,1.08-4.08,3.21-8.65-1.56,0-4.65-.22-6.1-.6l.29-1.29h-2.91c-.81,4.29-3.39,10.06-5.85,12.97l2.34,1.48c1.49-2.03,3.8-6.19,5.36-10.69,.84,.27,2.31,.44,2.98,.47-1.13,2.46-2.46,5.35-2.46,7.22,0,1.49,.91,3,2.95,3,1.77,0,3.65-1.32,4.76-3.19,.31,1.89,2.24,3.19,3.85,3.19,2.83,0,4.12-2.83,4.12-2.83-.06,1.06,.44,2.64,2.03,2.81,2.23,.24,4.04-1.69,4.82-3.17,.3,1.76,1.62,3.19,3.49,3.19,1.39,0,4.98-.89,7.31-6.78,.49,.41,1.46,1.05,2.75,1.54,.46,3.58,3.65,5.13,6.41,5.23,2.98,.11,5.76-1.21,7.57-2.45,.93,1.62,2.48,2.45,3.95,2.46,1.55,0,2.92-.58,3.75-1.47l-3.32,9.73h3.2l3.13-9.42c.45,.31,2.06,1.17,5.02,1.17,4.14,0,7.22-2.87,7.44-3.19,.36,2.03,2.08,3.19,4.01,3.19,2.63,0,3.95-2.83,3.95-2.83-.21,1.18,.61,2.83,2.29,2.83,1.43,0,2.73-.74,4.11-1.94,1.14,1.13,3.12,1.94,5.08,1.94,1.82,0,3.89-.12,6.4-2.11,1.11,1.22,3.1,2.11,4.99,2.11,3.46,0,5.35-2.76,5.38-5.35,0-2.5-1.65-5.89-2.63-7.91h0ZM27.62,28.92c-1.08,0-1.75-.84-1.75-2.19,0-2.8,1.6-5.92,3.9-5.92,.85,0,1.72,.53,2.23,1.28-1.39,4.6-2.8,6.83-4.39,6.83h0Zm30.36-8.34c.97,0,1.64,.6,1.64,1.47,0,1.12-1.86,3.41-5.45,2.48,.4-2.12,2.06-3.95,3.81-3.95Zm14.34-9.35c1.94,.63,.73,8.18-5.55,13.65-.67-4.07,2.67-14.59,5.55-13.65Zm9.79,15.41c-.92,1.48-2.11,2.29-3.34,2.29s-2.06-.72-2.06-.72c1.31-3.74,2.54-7.39,5.19-7.39,.88,0,1.45,.75,1.45,1.92s-.49,2.7-1.24,3.91Zm11.02,2.28c-1.08,0-1.75-.84-1.75-2.19,0-2.8,1.6-5.92,3.9-5.92,.85,0,1.72,.53,2.23,1.28-1.39,4.6-2.8,6.83-4.39,6.83h0Zm13.91,0c-1.53,0-2.61-1.03-2.61-1.03,0,0,2.27-2.88,3.61-7.35,.61,1.23,1.65,3.54,1.65,5.51,0,1.62-.91,2.86-2.65,2.86Zm11.63,0c-1.81,0-2.67-1.12-2.67-1.12,0,0,2.39-2.83,3.67-7.22,.68,1.37,1.69,3.62,1.69,5.51,0,1.57-.94,2.83-2.69,2.83Z"/>
  <path class="cls-2" d="M141.68,10.17l-6.17-3.33c-.14-.08-.26-.19-.33-.33l-3.32-6.18c-.23-.43-.85-.43-1.08,0l-3.32,6.18c-.08,.14-.19,.26-.33,.33l-6.17,3.33c-.43,.23-.43,.85,0,1.09l6.17,3.33c.14,.08,.26,.19,.33,.33l3.32,6.18c.23,.43,.85,.43,1.08,0l3.32-6.18c.08-.14,.19-.26,.33-.33l6.17-3.33c.43-.23,.43-.85,0-1.09h0Zm-4.38,.74l-1.91,3.56c-.08,.14-.19,.26-.33,.33l-3.55,1.92c-.12,.07-.27,.07-.39,0l-3.55-1.92c-.14-.08-.26-.19-.33-.33l-1.91-3.56c-.07-.12-.07-.27,0-.39l1.91-3.56c.08-.14,.19-.26,.33-.33l3.55-1.92c.12-.07,.27-.07,.39,0l3.55,1.92c.14,.08,.26,.19,.33,.33l1.91,3.56c.07,.12,.07,.27,0,.39Z"/>
</svg>