<svg width="65" height="47" viewBox="0 0 65 47" fill="none" xmlns="http://www.w3.org/2000/svg">
<path d="M64.7186 11.5026C64.1184 10.3996 63.4893 9.31106 62.8979 8.20514C62.6108 7.66665 62.1905 7.46689 61.5961 7.42926C60.7467 7.37425 59.903 7.2266 59.0564 7.14554C58.5752 7.09922 58.1142 6.96025 57.9576 6.50283C57.7547 5.91802 57.3546 5.83985 56.8356 5.77327C54.7888 5.50982 52.742 5.23189 50.7038 4.91343C50.0892 4.81789 49.6021 4.77157 49.1731 5.36506C48.8513 5.8109 48.2975 5.68642 47.793 5.61983C44.543 5.19425 41.2872 4.79473 38.0372 4.37205C35.5497 4.0478 33.0651 3.69749 30.6356 3.36745C30.3892 3.05768 30.5254 2.78554 30.5167 2.52788C30.5109 2.276 30.4124 2.09941 30.1978 1.9865C29.7021 1.72304 29.1541 1.7491 28.6207 1.72015C28.0901 1.69409 28.2032 2.20942 28.0292 2.48445C27.7277 2.96504 27.2812 2.89845 26.8318 2.83186C26.4318 2.77396 26.3245 2.50472 26.3709 2.15152C26.4665 1.43064 26.0636 1.24825 25.4373 1.1585C23.0832 0.819778 20.7319 0.466577 18.3894 0.0583704C17.7574 -0.0516428 17.3399 -0.0487477 17.2094 0.675023C17.1195 1.17298 16.7948 1.32063 16.3223 1.25115C15.7453 1.16429 15.1655 1.08323 14.5885 1.01085C13.1853 0.834253 12.9534 0.996378 12.5678 2.32522C12.217 3.53537 12.0952 4.78894 11.8662 6.02224C10.4514 13.6045 9.21053 21.2128 7.92908 28.8181C7.42752 31.7943 7.42752 31.2645 9.08876 33.5863C10.4108 35.4363 10.4253 35.4247 12.5823 35.9314C25.4721 38.9654 38.3909 41.8576 51.3127 44.7469C53.1971 45.1667 55.0816 45.5778 56.9748 45.957C57.8765 46.1394 58.3287 45.8441 58.5839 44.9785C58.7114 44.55 58.7868 44.1042 58.8738 43.667C60.1987 37.1676 61.5323 30.6681 62.837 24.1628C63.5589 20.5585 64.2199 16.9425 64.9273 13.3381C65.0549 12.6925 65.0288 12.0846 64.7186 11.5113V11.5026ZM10.4398 30.6015C9.88024 30.5118 9.63671 30.2859 9.74688 29.7127C9.85705 29.1395 9.93533 28.5634 10.0455 27.9901C11.211 21.9163 12.2663 15.8221 13.5506 9.76849C13.9884 7.71008 14.5335 5.66904 14.7103 3.56142C14.7306 3.32403 14.8176 3.08952 15.0843 3.08952C15.4409 3.08952 15.5134 3.37035 15.4699 3.65696C15.2814 4.90185 15.3452 6.167 15.2206 7.41189C15.0553 9.08524 15.5569 10.5009 16.5513 11.795C17.1137 12.5275 17.5138 13.3121 17.4269 14.2761C17.192 15.9176 16.9224 17.5563 16.7339 19.2007C16.473 21.482 15.7134 23.6562 15.4003 25.9231C15.1858 27.4777 14.9509 29.0295 14.7103 30.5784C14.5914 31.3484 14.5306 31.3832 13.7449 31.2355C12.6432 31.0271 11.5473 30.7752 10.4398 30.5957V30.6015ZM24.4284 36.6783C23.9645 36.6001 23.5645 36.5451 23.1702 36.4612C20.4101 35.859 17.6501 35.251 14.8901 34.6373C14.5422 34.5591 14.1942 34.4578 13.8608 34.3304C13.6405 34.2464 13.4926 34.0698 13.5796 33.8064C13.6434 33.6095 13.8116 33.5342 14 33.5429C14.2232 33.5516 14.4465 33.5748 14.6639 33.6211C17.7371 34.2667 20.8102 34.9181 23.8805 35.5695C24.1008 35.6158 24.324 35.6505 24.5357 35.7229C24.7879 35.8098 25.0923 35.9227 25.0749 36.2382C25.0517 36.6725 24.6575 36.6117 24.4284 36.6812V36.6783ZM31.2154 37.9695C31.0908 38.0129 30.9574 38.0303 30.8298 38.0593C30.3428 37.9811 29.8499 37.9492 29.4266 37.6713C29.2643 37.5642 29.2005 37.3847 29.2411 37.2052C29.2817 37.0286 29.4063 36.8694 29.6006 36.8578C30.1833 36.823 30.7516 36.9244 31.2792 37.1791C31.43 37.2515 31.5778 37.3963 31.5517 37.6018C31.5256 37.7929 31.3865 37.9087 31.2154 37.9695ZM40.9596 39.8861C40.8437 40.1727 40.5624 40.2248 40.2812 40.2132C40.1044 40.2045 39.9275 40.164 39.7536 40.1292C38.4808 39.8716 37.2052 39.6168 35.9353 39.3534C35.628 39.2897 35.3207 39.226 35.0221 39.1275C34.4103 38.9249 34.132 38.5891 34.2364 38.2127C34.3292 37.8711 34.6278 37.7437 35.4193 37.7813C36.9674 38.0998 38.678 38.4472 40.3363 39.0117C40.4204 39.0407 40.4987 39.087 40.574 39.1362C40.8379 39.3157 41.1133 39.5126 40.9625 39.8861H40.9596ZM53.345 39.336C53.2667 39.9411 52.9304 40.0192 52.3883 39.8976C49.5442 39.252 46.6913 38.6412 43.8443 38.0014C35.6135 36.1543 27.3827 34.3014 19.1519 32.4486C18.888 32.3907 18.6329 32.3009 18.3662 32.2575C17.8646 32.1764 17.6588 31.913 17.7516 31.4063C18.0937 29.4637 18.4561 27.5269 18.7779 25.5814C19.1925 23.0598 19.5897 20.5382 19.9608 18.0108C20.1492 16.7196 20.1376 15.4139 20.0129 14.1169C19.8854 12.7881 19.4563 11.5663 18.4097 10.666C16.9688 9.42686 16.5716 7.86352 16.8789 6.05409C16.9862 5.43454 17.0674 4.8121 17.1891 4.19834C17.3544 3.35008 17.4037 3.30087 18.2415 3.39351C19.7578 3.56432 21.2712 3.76697 22.7846 3.95805C32.6302 5.19425 42.4382 6.68811 52.2578 8.09802C54.2583 8.38463 56.2558 8.67414 58.2562 8.96365C58.4795 8.9955 58.7027 9.01576 58.9202 9.07077C59.5638 9.23289 59.6479 9.33712 59.5261 10.0001C59.3376 11.0134 59.1173 12.0209 58.9057 13.0283C57.0966 21.6239 55.2846 30.2194 53.4726 38.8149C53.4349 38.9915 53.3682 39.1594 53.345 39.336ZM57.3923 43.7857C57.1401 43.9942 56.8617 43.8813 56.6675 43.6989C55.9253 42.9983 55.2498 42.2369 54.6699 41.3944C54.5685 41.2467 54.5424 41.0499 54.667 40.9022C54.7424 40.8125 54.8816 40.7777 55.012 40.7111C55.1802 40.7951 55.3483 40.853 55.4875 40.9543C56.25 41.5073 56.8675 42.2021 57.4184 42.9577C57.6126 43.2241 57.6996 43.5339 57.3923 43.7857ZM58.9115 32.9668C58.6476 34.452 58.3519 35.9314 58.0533 37.4108C58.0069 37.6337 57.8388 37.819 57.5807 37.7929C57.169 37.7524 57.1343 37.4281 57.1111 37.0141C57.3314 35.6592 57.5604 34.2117 57.804 32.767C57.8591 32.4428 58.0272 32.1562 58.4128 32.1851C58.8912 32.2228 58.9781 32.6078 58.9144 32.9668H58.9115ZM62.8428 14.3717C61.8049 18.6448 61.1004 22.9845 60.2277 27.2924C60.1378 27.7296 60.0335 28.1667 59.8885 28.5894C59.8363 28.74 59.6653 28.8731 59.4565 28.8471C59.1927 28.8152 59.0332 28.6242 59.0448 28.3955C59.068 27.9033 59.1115 27.4082 59.213 26.9277C60.1552 22.449 60.651 17.8921 61.6483 13.425C61.7353 13.0312 61.802 12.6317 61.9121 12.2438C62.0049 11.9224 62.2079 11.6735 62.5905 11.7198C62.9674 11.7661 63.0921 12.0527 63.1472 12.3827C63.1617 12.4696 63.1588 12.5622 63.1675 12.7331C63.0718 13.2252 62.9819 13.8042 62.8457 14.3688L62.8428 14.3717Z" fill="white"/>
<path d="M7.12021 14.3427C7.00424 14.2761 6.88247 14.2124 6.75491 14.1777C5.03568 13.6826 3.30486 13.231 1.51316 13.0891C0.57382 13.0139 0.124445 13.2947 0.0171744 13.8621C-0.0900959 14.4296 0.278102 14.8609 1.12177 15.1504C1.16526 15.1649 1.20874 15.1736 1.25223 15.1852C2.812 15.605 4.40656 15.8018 5.6909 15.9727C6.27364 15.9727 6.54617 16.0103 6.80709 15.964C7.22748 15.8916 7.56668 15.6831 7.62467 15.2083C7.67395 14.7972 7.44782 14.5338 7.11731 14.3427H7.12021Z" fill="white"/>
<path d="M3.58609 9.17789C4.20941 9.82928 4.92262 10.3736 5.688 10.8484C5.99532 11.0394 6.32293 11.1871 6.69982 11.1552C7.1492 11.1176 7.44492 10.8107 7.45362 10.3128C7.43622 10.2317 7.44492 10.0783 7.37534 9.97693C6.52007 8.72915 5.41548 7.7593 3.98907 7.24108C3.36575 7.01526 2.85259 7.62902 3.01494 8.27752C3.10772 8.6394 3.33676 8.91443 3.58609 9.17499V9.17789Z" fill="white"/>
<path d="M5.17485 19.5423C5.04438 19.5249 4.90812 19.5249 4.73997 19.5162C3.78903 19.5857 2.84099 19.7971 1.98863 20.3211C1.61753 20.5498 1.43198 20.903 1.56245 21.3459C1.67552 21.7281 1.97123 21.9481 2.36262 21.9249C3.48461 21.8555 4.54282 21.5312 5.52855 21.0043C5.81557 20.8509 5.97792 20.544 5.91124 20.2139C5.83586 19.8347 5.57494 19.5973 5.17485 19.5481V19.5423Z" fill="white"/>
<path d="M46.2014 12.9415C43.6182 11.3492 40.8321 10.7557 37.8778 10.6399C36.7471 10.5965 35.6106 10.6225 34.5495 11.0278C30.0123 12.7591 27.2029 15.9871 26.5622 20.819C25.9244 25.6451 27.8727 29.4116 31.9025 32.0635C34.4886 33.7658 37.4052 34.2551 40.432 33.7629C45.2302 32.9813 48.7411 30.3989 50.4922 25.8188C52.3767 20.8885 50.8343 15.8018 46.2014 12.9415ZM45.8767 27.5935C43.8269 30.0486 41.1336 31.2008 37.9938 31.2442C35.1409 31.1139 32.6824 30.1673 30.7052 28.1349C27.661 24.9995 27.1943 20.2487 29.6383 16.6298C31.227 14.279 33.3116 12.5101 36.2919 12.3509C39.023 12.2033 41.6902 12.6925 44.027 14.198C48.628 17.1654 49.463 23.3001 45.8767 27.5935Z" fill="white"/>
<path d="M27.8147 8.0517C27.8524 7.44084 27.3769 6.98052 26.597 6.89367C25.9302 6.81839 25.2576 6.78076 24.5908 6.69969C22.944 6.50283 21.3002 6.28859 19.7578 6.09462C19.4302 6.09462 19.207 6.09462 18.9837 6.09462C18.6967 6.09173 18.4706 6.21043 18.2647 6.4015C17.9313 6.71128 17.8385 7.08764 17.9922 7.49874C18.1662 7.96485 18.5372 8.1675 19.0301 8.22251C21.4799 8.49175 23.95 8.57281 26.3738 9.08814C27.1508 9.25316 27.7828 8.73204 27.8234 8.0517H27.8147Z" fill="white"/>
<path d="M55.9572 12.707C55.8557 12.2409 55.618 11.8443 55.186 11.6706C53.7161 11.0742 52.165 10.9034 50.5937 10.912C50.3124 10.912 50.0892 11.0857 50.0544 11.4042C50.0196 11.7053 50.1617 11.9485 50.4168 12.0585C50.7415 12.1975 51.0923 12.2727 51.4373 12.3596C52.0433 12.5101 52.6521 12.652 53.2638 12.7823C53.7828 12.8923 54.0263 13.1818 54.0031 13.7203C53.9799 14.2095 53.9712 14.7046 54.0031 15.191C54.0495 15.8655 54.4177 16.2477 54.9715 16.2564C55.5136 16.2679 55.9166 15.8974 56.0094 15.2431C56.0587 14.8928 56.0181 14.5309 56.0181 14.1748C56.0761 13.6826 56.0616 13.1934 55.9543 12.7099L55.9572 12.707Z" fill="white"/>
<path d="M30.4211 9.85244C31.2096 9.82349 31.7228 9.30527 31.6677 8.59308C31.6184 7.90694 31.0212 7.4032 30.2848 7.42347C29.56 7.44663 28.9947 8.02564 29.0323 8.71178C29.07 9.40081 29.6528 9.8785 30.4211 9.84955V9.85244Z" fill="white"/>
<path d="M43.0732 19.2209C42.9021 19.1688 42.7281 19.1254 42.5513 19.0878C40.4059 18.6332 38.2663 18.1642 36.1151 17.7415C35.283 17.5765 34.4306 17.5128 33.587 17.4057C33.1202 17.3449 32.8651 17.507 32.7259 18.005C32.1548 20.0316 31.7866 22.0986 31.4503 24.1715C31.3314 24.8982 31.4909 25.1327 32.1722 25.4077C32.4998 25.5409 32.8564 25.6162 33.2072 25.6857C34.0827 25.8652 34.9612 26.0475 35.8426 26.1894C37.785 26.505 39.7333 26.7974 41.4003 27.055C42.4382 27.0898 42.5049 27.0521 42.6673 26.2936C42.8441 25.4627 42.9833 24.6261 43.1456 23.7923C43.366 22.6516 43.6124 21.5167 43.8066 20.3703C43.94 19.5857 43.8298 19.4525 43.0732 19.2209ZM41.9975 21.0941C41.7308 22.3563 41.4409 23.6157 41.1539 24.875C41.0524 25.3209 40.7364 25.3846 40.3334 25.344C38.6374 25.1732 36.9848 24.7882 35.3381 24.3771C34.4219 24.1484 34.6713 23.3493 34.5553 22.7819C34.5756 21.6239 35.0163 20.6511 35.5062 19.6928C35.6657 19.3802 35.9179 19.2499 36.2803 19.3252C38.0285 19.687 39.7797 20.0373 41.5308 20.3992C41.899 20.4745 42.07 20.7409 41.9947 21.0912L41.9975 21.0941Z" fill="white"/>
<path d="M41.696 14.5454C40.9828 14.2877 40.4494 14.4151 40.4146 14.8146C40.3653 15.4023 40.8553 15.5355 41.2757 15.6802C42.7137 16.1811 43.8704 17.0815 44.8939 18.1758C45.0765 18.3698 45.2591 18.5782 45.4824 18.7172C45.8361 18.943 46.2275 18.6911 46.2159 18.2742C46.2159 17.8863 46.0013 17.5939 45.7636 17.3247C44.6416 16.0566 43.2877 15.1186 41.696 14.5425V14.5454Z" fill="white"/>
<path d="M36.3615 14.7683C36.5645 14.8436 36.7964 14.8465 36.8747 14.858C37.556 14.8638 37.8024 14.8175 38.0546 14.6612C38.4025 14.4469 38.417 14.0011 38.0865 13.7782C37.614 13.4626 36.5963 13.5755 36.2165 13.9895C35.9846 14.2443 36.0455 14.6554 36.3615 14.7712V14.7683Z" fill="white"/>
</svg>
